<svg xmlns="http://www.w3.org/2000/svg" width="176" height="60" viewBox="0 0 176 60"><g fill="none" fill-rule="evenodd"><rect width="176" height="60" fill="#1E222B" rx="6"/><path d="M62.098 45l-1.611-4.76h-6.714L52.162 45h-2.845l6.36-17.615h2.954L64.991 45h-2.893zm-5.005-14.685l-2.624 7.727h5.322l-2.624-7.727h-.074zm16.211 1.636c3.26 0 5.408 2.563 5.408 6.628 0 4.065-2.136 6.64-5.359 6.64-1.843 0-3.308-.903-4.04-2.33h-.062v6.359h-2.636v-17.09h2.551v2.21h.049c.757-1.477 2.234-2.417 4.09-2.417zm-.696 11.035c2.088 0 3.394-1.71 3.394-4.407 0-2.685-1.306-4.407-3.394-4.407-2.014 0-3.369 1.758-3.369 4.407 0 2.673 1.343 4.407 3.37 4.407zm14.82-11.035c3.259 0 5.407 2.563 5.407 6.628 0 4.065-2.136 6.64-5.358 6.64-1.844 0-3.309-.903-4.041-2.33h-.061v6.359h-2.637v-17.09h2.552v2.21h.048c.757-1.477 2.234-2.417 4.09-2.417zm-.696 11.035c2.087 0 3.393-1.71 3.393-4.407 0-2.685-1.306-4.407-3.393-4.407-2.014 0-3.37 1.758-3.37 4.407 0 2.673 1.344 4.407 3.37 4.407zm12.732-2.893c.17 3.186 2.807 5.2 6.714 5.2 4.175 0 6.8-2.063 6.8-5.359 0-2.576-1.502-4.028-5.116-4.883l-1.94-.476c-2.271-.561-3.199-1.294-3.199-2.539 0-1.562 1.453-2.637 3.577-2.637 2.124 0 3.576 1.062 3.735 2.82h2.661c-.085-3.04-2.636-5.127-6.36-5.127-3.76 0-6.408 2.088-6.408 5.127 0 2.454 1.501 3.968 4.736 4.749l2.283.55c2.282.56 3.247 1.378 3.247 2.746 0 1.574-1.6 2.722-3.821 2.722-2.32 0-4.016-1.148-4.211-2.893h-2.698zm16.418-10.974v3.04h-1.867v2.087h1.867v7.373c0 2.478 1.014 3.466 3.614 3.466.586 0 1.171-.048 1.464-.122v-2.087c-.17.037-.598.061-.866.061-1.074 0-1.563-.5-1.563-1.611v-7.08h2.442v-2.088h-2.442v-3.04h-2.649zm12.769 16.125c-3.674 0-6.091-2.527-6.091-6.665 0-4.126 2.429-6.653 6.09-6.653 3.663 0 6.092 2.527 6.092 6.653 0 4.138-2.417 6.665-6.091 6.665zm0-2.173c2.075 0 3.406-1.635 3.406-4.492 0-2.844-1.343-4.48-3.406-4.48s-3.406 1.636-3.406 4.48c0 2.857 1.343 4.492 3.406 4.492zM136.78 45h2.636v-7.69c0-1.82 1.05-2.955 2.747-2.955.513 0 .977.062 1.184.147v-2.454a4.811 4.811 0 0 0-.903-.097c-1.514 0-2.661.89-3.089 2.392h-.06v-2.185h-2.515V45zm13.574-10.95c-1.843 0-3.137 1.404-3.272 3.345h6.421c-.06-1.965-1.306-3.345-3.149-3.345zm3.137 7.178h2.503c-.367 2.344-2.588 4.016-5.53 4.016-3.772 0-6.055-2.551-6.055-6.604 0-4.028 2.32-6.714 5.945-6.714 3.564 0 5.786 2.515 5.786 6.409v.903h-9.07v.159c0 2.234 1.343 3.71 3.455 3.71 1.501 0 2.612-.756 2.966-1.879zM52.89 12.84h3.078c2.717 0 4.323 1.695 4.323 4.577 0 2.888-1.6 4.583-4.323 4.583H52.89v-9.16zm1.142 1.029v7.103h1.86c2.076 0 3.231-1.27 3.231-3.542 0-2.292-1.149-3.561-3.23-3.561h-1.86zm10.939 8.245c-1.828 0-3.06-1.314-3.06-3.415 0-2.107 1.232-3.415 3.06-3.415 1.822 0 3.053 1.308 3.053 3.415 0 2.101-1.231 3.415-3.053 3.415zm0-.97c1.168 0 1.93-.89 1.93-2.445 0-1.555-.762-2.444-1.93-2.444s-1.936.889-1.936 2.444.768 2.444 1.936 2.444zm13.262-5.746H77.14l-1.32 5.37h-.025l-1.499-5.37H73.23l-1.492 5.37h-.025l-1.32-5.37h-1.098L71.142 22h1.123l1.486-5.11h.025L75.268 22h1.123l1.841-6.602zM79.833 22h1.105v-3.885c0-1.117.68-1.853 1.72-1.853 1.016 0 1.517.584 1.517 1.65V22h1.105v-4.285c0-1.498-.838-2.43-2.285-2.43-1.022 0-1.727.456-2.095 1.167h-.026v-1.054h-1.04V22zm7.607 0h1.104v-9.16H87.44V22zm6.032.114c-1.828 0-3.06-1.314-3.06-3.415 0-2.107 1.232-3.415 3.06-3.415 1.821 0 3.053 1.308 3.053 3.415 0 2.101-1.232 3.415-3.053 3.415zm0-.97c1.168 0 1.93-.89 1.93-2.445 0-1.555-.762-2.444-1.93-2.444s-1.936.889-1.936 2.444.768 2.444 1.936 2.444zm7.041.03c1.041 0 1.84-.73 1.84-1.681v-.54l-1.764.108c-.889.057-1.396.45-1.396 1.073 0 .628.527 1.04 1.32 1.04zm-.248.94c-1.314 0-2.196-.793-2.196-1.98 0-1.13.87-1.841 2.393-1.93l1.892-.108v-.552c0-.806-.533-1.289-1.447-1.289-.851 0-1.384.4-1.524 1.048h-1.066c.076-1.143 1.053-2.019 2.615-2.019 1.549 0 2.526.838 2.526 2.152V22h-1.047v-1.136h-.025c-.394.755-1.232 1.25-2.12 1.25zm7.797 0c-1.682 0-2.825-1.345-2.825-3.415 0-2.07 1.137-3.415 2.8-3.415.946 0 1.707.464 2.1 1.187h.026v-3.63h1.105V22h-1.054v-1.117h-.02c-.424.762-1.18 1.231-2.132 1.231zm.21-5.859c-1.168 0-1.905.953-1.905 2.444 0 1.498.737 2.444 1.905 2.444 1.136 0 1.898-.965 1.898-2.444 0-1.472-.762-2.444-1.898-2.444zm11.29 5.86c-1.829 0-3.06-1.315-3.06-3.416 0-2.107 1.231-3.415 3.06-3.415 1.821 0 3.052 1.308 3.052 3.415 0 2.101-1.231 3.415-3.053 3.415zm0-.972c1.167 0 1.929-.889 1.929-2.444s-.762-2.444-1.93-2.444-1.936.889-1.936 2.444.768 2.444 1.936 2.444zm4.863.857h1.105v-3.885c0-1.117.679-1.853 1.72-1.853 1.016 0 1.517.584 1.517 1.65V22h1.105v-4.285c0-1.498-.838-2.43-2.286-2.43-1.022 0-1.726.456-2.094 1.167h-.026v-1.054h-1.04V22zm11.27-8.195v1.593h-.983v.908h.984v3.98c0 1.27.47 1.765 1.682 1.765.26 0 .565-.02.698-.051v-.927c-.076.013-.33.032-.457.032-.565 0-.819-.273-.819-.876v-3.923h1.283v-.908H136.8v-1.593h-1.104zm4.32 8.195h1.104v-3.847c0-1.142.679-1.891 1.777-1.891 1.035 0 1.561.628 1.561 1.675V22h1.105v-4.266c0-1.472-.876-2.45-2.323-2.45-1.003 0-1.727.432-2.095 1.168h-.025V12.84h-1.105V22zm10.297-5.757c-1.035 0-1.759.793-1.828 1.891h3.586c-.025-1.104-.717-1.891-1.758-1.891zm1.733 3.865h1.085c-.19 1.156-1.308 2.006-2.748 2.006-1.892 0-3.041-1.314-3.041-3.39 0-2.05 1.168-3.44 2.99-3.44 1.783 0 2.882 1.295 2.882 3.295v.419h-4.736v.063c0 1.263.743 2.095 1.93 2.095.838 0 1.454-.426 1.638-1.048zM32.422 14c.542 3.327-2.547 7.442-6.238 7.308-.543-4.233 3.435-7.085 6.238-7.308zm.632 6.922c3.676 0 6.027 3.476 6.027 3.476s-3.586 1.901-3.586 6.031c0 4.901 4.505 6.327 4.505 6.327S36.444 45 32.451 45c-2.245 0-2.395-1.262-5.378-1.262-2.592 0-3.465 1.262-5.44 1.262C17.868 45 13 36.964 13 30.429c0-6.788 4.927-9.507 8.016-9.507 2.712 0 3.842 1.56 6.026 1.56 1.839 0 3.286-1.56 6.012-1.56z" fill="#FFF"/></g></svg>